<?xml version="1.0" encoding="UTF-8" standalone="no"?>
<svg
   width="67.733337mm"
   height="67.733337mm"
   viewBox="0 0 67.733337 67.733337"
   version="1.1"
   id="svg8"
   inkscape:version="1.2.2 (b0a8486541, 2022-12-01)"
   sodipodi:docname="deaths-door-eu-ikonoa.svg"
   inkscape:export-filename="deaths-door-eu-ikonoa-16.png"
   inkscape:export-xdpi="6"
   inkscape:export-ydpi="6"
   xml:space="preserve"
   xmlns:inkscape="http://www.inkscape.org/namespaces/inkscape"
   xmlns:sodipodi="http://sodipodi.sourceforge.net/DTD/sodipodi-0.dtd"
   xmlns="http://www.w3.org/2000/svg"
   xmlns:svg="http://www.w3.org/2000/svg"
   xmlns:rdf="http://www.w3.org/1999/02/22-rdf-syntax-ns#"
   xmlns:cc="http://creativecommons.org/ns#"
   xmlns:dc="http://purl.org/dc/elements/1.1/"><defs
     id="defs2"><clipPath
       clipPathUnits="userSpaceOnUse"
       id="clipPath2108"><rect
         style="fill:none;stroke:#1e9a79;stroke-width:4.90823;stroke-miterlimit:4;stroke-dasharray:none;stroke-opacity:1"
         id="rect2110"
         width="62.825119"
         height="62.825119"
         x="-73.406212"
         y="-29.586908"
         ry="18.566067" /></clipPath></defs><sodipodi:namedview
     id="base"
     pagecolor="#ffffff"
     bordercolor="#666666"
     borderopacity="1.0"
     inkscape:pageopacity="0.0"
     inkscape:pageshadow="2"
     inkscape:zoom="0.77117581"
     inkscape:cx="-237.94834"
     inkscape:cy="88.17704"
     inkscape:document-units="mm"
     inkscape:current-layer="layer1"
     inkscape:document-rotation="0"
     showgrid="false"
     inkscape:window-width="1850"
     inkscape:window-height="1011"
     inkscape:window-x="0"
     inkscape:window-y="0"
     inkscape:window-maximized="1"
     fit-margin-top="0"
     fit-margin-left="0"
     fit-margin-right="0"
     fit-margin-bottom="0"
     inkscape:showpageshadow="false"
     inkscape:pagecheckerboard="1"
     inkscape:deskcolor="#d1d1d1" /><metadata
     id="metadata5"><rdf:RDF><cc:Work
         rdf:about=""><dc:format>image/svg+xml</dc:format><dc:type
           rdf:resource="http://purl.org/dc/dcmitype/StillImage" /></cc:Work></rdf:RDF></metadata><g
     inkscape:label="Geruza 1"
     inkscape:groupmode="layer"
     id="layer1"
     transform="translate(-32.181116,9.9947518)"><g
       id="g2106"
       clip-path="url(#clipPath2108)"
       transform="translate(108.04144,22.046266)"><rect
         style="fill:#ffffff;stroke:#ffffff;stroke-width:0.353445;stroke-linejoin:round;paint-order:stroke markers fill"
         id="rect2102"
         width="99.075676"
         height="76.96106"
         x="-89.64769"
         y="-37.590183" /><path
         style="fill:#000000;stroke-width:0.0934639"
         d="m -154.26177,18.952826 v -67.29418 H -34.627678 85.00642 V 18.952826 86.247 H -34.627678 -154.26177 Z m 113.745851,6.168668 c 0.145842,-0.145843 0.186929,-0.311548 0.186929,-0.753861 0,-0.968349 -0.268486,-1.216012 -1.053219,-0.971573 -0.465853,0.145113 -0.508109,0.143628 -0.894947,-0.03149 -0.693261,-0.313779 -0.881386,-0.141806 -1.143571,1.04536 -0.117634,0.532597 -0.114634,0.555809 0.0935,0.724343 0.18489,0.149723 0.383828,0.174115 1.419701,0.174115 1.080062,0 1.224015,-0.01932 1.391605,-0.186926 z m 5.254695,0.01425 1.749789,-0.06589 0.340349,-0.324674 0.340359,-0.324673 -0.06186,-3.131052 c -0.07086,-3.586711 -0.192199,-7.38139 -0.332358,-10.393438 -0.05333,-1.14621 -0.286103,-6.268876 -0.517259,-11.38370185 C -34.2279,-11.23466 -34.337356,-12.427811 -35.104594,-15.339165 c -0.828399,-3.143392 -2.290777,-5.595862 -4.7734,-8.005182 -1.39739,-1.356125 -1.832504,-1.724411 -2.037311,-1.724411 -0.23539,0 -2.215923,1.899705 -3.012481,2.889543 -2.630352,3.268597 -4.070485,6.991892 -4.752015,12.2857639 -0.10969,0.851995 -0.311937,3.9907617 -0.509641,7.9093317 -0.180284,3.5732173 -0.390017,7.4220594 -0.466078,8.5529736 -0.07605,1.1309134 -0.270804,5.6451148 -0.432767,10.0315538 -0.271018,7.339748 -0.282459,7.987364 -0.143626,8.1262 0.25096,0.250961 6.791122,0.62071 6.932505,0.39194 0.0878,-0.14206 0.239493,-1.881947 0.18033,-2.068336 -0.02789,-0.08786 -0.241502,-0.232613 -0.474705,-0.321674 -0.40268,-0.15379 -0.46789,-0.153663 -1.296936,0.0023 -1.174021,0.221122 -1.290524,0.164646 -1.722497,-0.834923 -0.43101,-0.99736 -0.469761,-1.619696 -0.162871,-2.616124 0.126654,-0.411241 0.655389,-2.050719 1.174957,-3.643284 0.519577,-1.592567 0.944679,-3.009846 0.944679,-3.149518 0,-0.207886 -0.213752,-0.442492 -1.178695,-1.293681 -1.270663,-1.120878 -1.353417,-1.17246 -2.021339,-1.2598488 -0.243559,-0.031858 -0.498192,-0.113288 -0.565851,-0.1809493 -0.06766,-0.067677 -0.17618,-0.4115328 -0.241155,-0.7641722 -0.115149,-0.6249477 -0.1127,-0.645556 0.09702,-0.815373 0.175105,-0.1417918 0.33391,-0.167519 0.853047,-0.1381805 0.721833,0.040813 0.759528,0.073647 0.910117,0.7939811 0.100007,0.478411 0.11497,0.4945571 1.234118,1.3318607 1.138394,0.851703 1.361474,0.955008 1.556039,0.720574 0.37808,-0.455549 0.9441,-3.8380077 0.945268,-5.6487413 0,-0.4588245 -0.02113,-0.5066829 -0.292852,-0.6542493 -0.161244,-0.087567 -0.401708,-0.2490284 -0.534381,-0.3588028 -0.203275,-0.1681975 -0.222248,-0.2224503 -0.120616,-0.3449016 0.260372,-0.3137275 1.348959,-0.6181573 2.893314,-0.809135 2.295684,-0.2838963 2.645811,-0.24591 3.338371,0.3621668 0.231688,0.2034244 0.473115,0.2986778 0.968979,0.3823212 0.670456,0.1130872 1.150048,0.359579 1.378382,0.7084349 0.237622,0.3630556 9.48e-4,0.4985203 -1.221063,0.6978027 -0.610703,0.099619 -1.130037,0.2007968 -1.154076,0.2248383 -0.02404,0.024022 0.0027,0.6661426 0.05917,1.4268971 0.05657,0.7607554 0.12712,1.7827529 0.156758,2.2711023 0.08935,1.4721667 0.218556,2.1851387 0.838419,4.6264767 1.419712,5.591556 1.717114,8.375758 0.974056,9.118815 -0.15774,0.157736 -0.317433,0.180859 -1.249026,0.180859 -0.80811,0 -1.10113,0.03298 -1.203575,0.135419 -0.08443,0.08443 -0.161086,0.443551 -0.203594,0.95374 -0.06264,0.751936 -0.05295,0.83064 0.119354,0.970163 0.201349,0.163034 0.035,0.162579 4.059035,0.01112 z M -40.429642,5.1130046 c 0.39083,-0.3908269 0.390008,-0.8042928 -0.0026,-1.2513207 -0.240399,-0.2738005 -0.353491,-0.3303815 -0.660389,-0.3303815 -0.467545,0 -0.692607,0.1202576 -0.871115,0.4654501 -0.364968,0.7057635 0.04568,1.4038345 0.825831,1.4038345 0.345032,0 0.472246,-0.051635 0.708169,-0.2875824 z"
         id="path1952"
         sodipodi:nodetypes="ccccccccccsscsssccccccssssssssssssssscssssssssssssscsssssssssssssssssccsssssss" /></g><rect
       style="fill:none;stroke:#1e9a79;stroke-width:4.90822;stroke-miterlimit:4;stroke-dasharray:none;stroke-opacity:1"
       id="rect862-6-2"
       width="62.825119"
       height="62.825119"
       x="34.635223"
       y="-7.5406427"
       ry="18.566067" /></g></svg>
